<svg width="331" height="372" viewBox="0 0 331 372" fill="none" xmlns="http://www.w3.org/2000/svg">
<path d="M25.0253 162.794C33.1778 169.74 43.2192 174.665 55.1497 177.555C67.0801 180.446 80.7717 181.906 96.2529 181.906C101.139 181.906 106.323 181.409 111.834 180.414C117.344 179.42 122.429 177.664 127.102 175.147C131.774 172.63 135.638 169.196 138.705 164.845C141.773 160.494 143.307 154.963 143.307 148.25C143.307 145.049 142.64 140.854 141.319 135.664C139.998 130.475 138.18 125.362 135.879 120.328C133.578 115.294 130.865 110.99 127.727 107.4C124.588 103.811 121.207 102.024 117.586 102.024C114.66 102.024 112.004 103.36 109.632 106.033C107.26 108.705 104.718 111.673 101.991 114.952C99.2781 118.23 96.1961 121.214 92.7874 123.871C89.3645 126.543 85.1462 127.88 80.1326 127.88C75.3888 127.88 71.2132 126.776 67.5772 124.554C63.9555 122.348 60.8877 119.442 58.3737 115.853C55.8598 112.264 53.985 108.146 52.721 103.5C51.4711 98.8542 50.832 94.1617 50.832 89.4225C50.832 83.6268 51.5989 78.3593 53.1329 73.6357C54.6668 68.9121 56.7546 64.8566 59.4106 61.5003C62.0523 58.1441 65.0917 55.5181 68.5146 53.6069C71.9233 51.6957 75.5167 50.7479 79.2804 50.7479C83.8822 50.7479 87.4755 51.8511 90.0462 54.0731C92.6312 56.2795 94.932 58.7656 96.9489 61.5159C98.9657 64.2661 101.068 66.7367 103.227 68.9587C105.385 71.1651 108.425 72.2839 112.331 72.2839C116.52 72.2839 120 70.8699 122.784 68.0575C125.568 65.2295 127.798 61.9509 129.474 58.2218C131.149 54.4926 132.328 50.6702 133.024 46.7856C133.72 42.9011 134.075 39.809 134.075 37.5248C134.075 25.6225 131.32 16.3928 125.809 9.8357C120.298 3.27857 111.961 0 100.812 0C85.3309 0 71.3836 1.56936 58.9703 4.69255C46.5569 7.81573 35.99 13.0055 27.2836 20.2463C18.563 27.4871 11.8734 36.9499 7.20064 48.6191C2.57049 60.2728 0.241211 74.7234 0.241211 91.9708C0.241211 109.218 2.32904 123.591 6.5189 135.105C10.7088 146.619 16.8728 155.848 25.0253 162.794Z" fill="#78BBD8"/>
<path d="M167.055 152.724C174.938 160.587 184.07 166.678 194.453 171.028C204.835 175.379 215.899 177.554 227.602 177.554C239.305 177.554 249.773 175.876 259.402 172.52C269.032 169.164 277.327 164.161 284.3 157.526C291.274 150.891 296.714 142.687 300.619 132.929C304.525 123.171 306.471 111.797 306.471 98.8378C306.471 88.769 305.42 79.0887 303.332 69.7813C301.372 61.0799 298.063 52.6115 293.404 44.3763C288.731 36.141 283.15 28.7759 276.673 22.2965C270.182 15.817 262.967 10.6272 255.028 6.72714C247.074 2.84258 238.851 0.884766 230.343 0.884766C217.93 0.884766 206.326 2.64059 195.518 6.15223C184.709 9.66387 175.293 15.0401 167.282 22.2809C159.258 29.5217 152.952 38.6116 148.35 49.5194C143.748 60.4273 141.447 73.3551 141.447 88.3029C141.447 101.433 143.748 113.475 148.35 124.46C152.952 135.446 159.187 144.862 167.069 152.724H167.055ZM178.006 65.2907C186.087 53.1088 201.668 50.4207 212.803 59.2619L221.807 66.4095L229.392 54.9889C237.473 42.8069 253.054 40.1188 264.189 48.9601C275.324 57.8013 277.781 74.8468 269.7 87.0287L262.115 98.4493L262.257 98.5581L232.985 142.656L183.545 103.359C172.41 94.5182 169.953 77.4727 178.034 65.3063L178.006 65.2907Z" fill="#DF3841"/>
<path d="M142.796 321.719C139.941 319.279 136.831 317.026 133.493 314.975C130.141 312.908 127.045 310.966 124.19 309.133C121.335 307.299 118.921 305.621 116.975 304.098C115.015 302.576 114.049 301.208 114.049 299.981C114.049 298.147 115.342 296.127 117.913 293.921C120.498 291.714 123.31 288.855 126.378 285.344C129.445 281.832 132.272 277.419 134.842 272.074C137.427 266.729 138.706 260.094 138.706 252.169C138.706 242.551 137.243 234.176 134.317 226.998C131.391 219.834 127.485 213.65 122.6 208.46C117.714 203.271 112.004 198.998 105.442 195.641C98.8807 192.285 92.0207 189.581 84.834 187.515C77.6473 185.448 70.2902 184.05 62.7627 183.289C55.2351 182.527 47.9774 182.139 41.0038 182.139C31.6583 182.139 24.2728 183.972 18.8331 187.624C13.3933 191.291 9.2745 196.17 6.49073 202.276C3.69276 208.383 1.91739 215.251 1.15044 222.864C0.383479 230.494 0 238.356 0 246.436C0 253.754 0.411885 262.642 1.24986 273.1C2.08783 283.557 3.30928 294.185 4.91421 305.015C6.51914 315.845 8.50755 326.225 10.8794 336.138C13.2513 346.052 15.9641 354.209 19.0319 360.626C21.1197 365.055 23.9461 367.914 27.4968 369.203C31.0476 370.493 34.925 371.146 39.1006 371.146C41.1885 371.146 43.9154 370.835 47.2531 370.229C50.605 369.623 53.8717 368.66 57.0815 367.37C60.2914 366.065 63.0751 364.387 65.447 362.336C67.8189 360.269 68.9978 357.798 68.9978 354.893C68.9978 351.987 68.3302 348.942 67.0093 345.741C65.6885 342.54 64.254 339.417 62.7201 336.356C61.1862 333.31 59.7517 330.513 58.4308 327.996C57.1099 325.479 56.4424 323.537 56.4424 322.154C56.4424 320.476 56.8543 319.108 57.6922 318.036C58.5302 316.964 59.9931 316.436 62.0809 316.436C65.7027 316.436 68.8415 317.539 71.4975 319.761C74.1392 321.967 76.6247 324.764 78.9256 328.12C81.2265 331.477 83.4847 335.144 85.7288 339.106C87.9586 343.068 90.4726 346.735 93.2563 350.091C96.0401 353.448 99.321 356.229 103.085 358.451C106.849 360.657 111.308 361.776 116.478 361.776C119.688 361.776 123.381 361.357 127.571 360.518C131.76 359.679 135.723 358.265 139.487 356.291C143.251 354.318 146.418 351.801 149.003 348.74C151.588 345.694 152.88 342.027 152.88 337.754C152.88 334.864 151.9 332.067 149.954 329.395C147.994 326.722 145.594 324.174 142.739 321.734L142.796 321.719ZM82.7604 261.881C81.4395 264.087 79.792 266.154 77.8462 268.065C75.8862 269.976 73.7983 271.53 71.5685 272.758C69.3386 273.985 67.3076 274.591 65.5038 274.591C63.132 274.591 61.243 273.752 59.8511 272.074C58.4592 270.396 57.4082 268.376 56.7122 266.014C56.0163 263.652 55.5618 261.166 55.3488 258.571C55.1357 255.976 55.0363 253.692 55.0363 251.703C55.0363 248.192 55.7748 244.882 57.2377 241.743C58.7006 238.62 61.243 237.051 64.8789 237.051C66.6827 237.051 68.7421 237.626 71.043 238.76C73.3438 239.91 75.5027 241.355 77.5337 243.111C79.5505 244.867 81.2691 246.855 82.661 249.062C84.0528 251.268 84.7488 253.444 84.7488 255.588C84.7488 257.577 84.0813 259.674 82.7604 261.881Z" fill="#66B657"/>
<path d="M330.105 348.959C330.105 347.747 329.821 345.913 329.267 343.474C328.145 337.212 326.413 328.977 324.041 318.753C321.669 308.528 318.672 297.543 315.05 285.796C311.429 274.049 307.21 262.193 302.395 250.213C297.581 238.233 292.326 227.403 286.602 217.723C280.878 208.043 274.671 200.134 267.982 194.043C261.292 187.936 254.177 184.891 246.649 184.891C244.419 184.891 242.118 185.155 239.746 185.699C237.375 186.242 234.903 187.221 232.318 188.666C229.733 190.111 226.907 192.178 223.853 194.851C220.785 197.523 217.434 201.066 213.812 205.494C207.122 213.279 200.603 222.617 194.254 233.525C187.906 244.433 182.012 256.258 176.572 268.999C171.132 281.74 166.388 295.088 162.355 309.041C158.307 322.994 155.31 336.994 153.364 351.041C153.364 354.863 154.87 358.064 157.867 360.659C160.863 363.254 164.528 365.383 168.845 367.061C173.163 368.739 177.736 369.951 182.551 370.728C187.366 371.489 191.513 371.878 194.993 371.878C202.379 371.878 207.747 370.013 211.099 366.268C214.451 362.524 216.127 355.702 216.127 345.789C216.127 343.35 216.084 340.832 216.028 338.237C215.957 335.643 216.127 333.094 216.553 330.577C216.965 328.06 217.774 325.651 218.953 323.367C220.132 321.083 221.908 319.017 224.294 317.183C225.685 316.111 227.319 315.117 229.208 314.215C231.097 313.299 233.071 312.506 235.173 311.807C237.261 311.123 239.42 310.548 241.664 310.098C243.894 309.647 245.91 309.414 247.728 309.414C257.486 309.414 262.372 315.054 262.372 326.351C262.372 329.707 262.088 333.094 261.534 336.528C260.98 339.962 260.696 343.505 260.696 347.172C260.696 350.217 261.037 352.657 261.747 354.49C262.443 356.324 263.977 357.924 266.348 359.292C268.436 360.504 270.979 361.498 273.99 362.275C276.986 363.036 280.154 363.689 283.506 364.217C286.857 364.746 290.124 365.134 293.334 365.367C296.544 365.6 299.328 365.709 301.699 365.709C303.787 365.709 306.443 365.554 309.653 365.258C312.863 364.948 316.002 364.264 319.07 363.192C322.138 362.12 324.779 360.566 327.023 358.499C329.253 356.433 330.375 353.651 330.375 350.14C330.375 349.984 330.304 349.611 330.162 348.99L330.105 348.959ZM256.477 274.36C255.228 275.883 253.679 277.11 251.876 278.027C250.058 278.944 248.14 279.596 246.124 279.969C244.107 280.358 242.388 280.544 240.996 280.544C239.604 280.544 237.928 280.358 235.968 279.969C234.008 279.596 232.205 278.897 230.529 277.902C228.853 276.908 227.418 275.649 226.239 274.127C225.061 272.604 224.464 270.693 224.464 268.409C224.464 266.435 224.919 264.26 225.828 261.883C226.737 259.521 227.915 257.345 229.378 255.357C230.841 253.368 232.546 251.689 234.506 250.322C236.451 248.955 238.482 248.256 240.57 248.256C242.658 248.256 244.788 248.939 246.947 250.322C249.106 251.689 251.023 253.414 252.699 255.465C254.375 257.532 255.739 259.738 256.776 262.1C257.827 264.462 258.338 266.637 258.338 268.626C258.338 270.91 257.713 272.821 256.449 274.344L256.477 274.36Z" fill="#E471A9"/>
</svg>
